<svg xmlns="http://www.w3.org/2000/svg" width="60" height="60" viewBox="0 0 60 60">
  <g id="グループ_91" data-name="グループ 91" transform="translate(-0.001)">
    <circle id="楕円形_3" data-name="楕円形 3" cx="30" cy="30" r="30" transform="translate(0.001 0)" fill="#55acee"/>
    <g id="グループ_43" data-name="グループ 43" transform="translate(13.425 18.197)">
      <path id="パス_20" data-name="パス 20" d="M60.055,37.391a14.307,14.307,0,0,1-4.119,1.128,7.19,7.19,0,0,0,3.154-3.966,14.355,14.355,0,0,1-4.554,1.74,7.177,7.177,0,0,0-12.22,6.541A20.356,20.356,0,0,1,27.536,35.34a7.179,7.179,0,0,0,2.219,9.574,7.12,7.12,0,0,1-3.248-.9c0,.03,0,.061,0,.091a7.175,7.175,0,0,0,5.753,7.031,7.2,7.2,0,0,1-3.238.124,7.178,7.178,0,0,0,6.7,4.98A14.476,14.476,0,0,1,25.1,59.211a20.283,20.283,0,0,0,10.991,3.222c13.19,0,20.4-10.927,20.4-20.4,0-.311-.007-.62-.021-.927a14.541,14.541,0,0,0,3.579-3.711Z" transform="translate(-25.103 -34.028)" fill="#f1f2f2"/>
    </g>
  </g>
</svg>
