<svg id="グループ_90" data-name="グループ 90" xmlns="http://www.w3.org/2000/svg" width="60" height="60" viewBox="0 0 60 60">
  <path id="パス_17" data-name="パス 17" d="M0,30A30,30,0,1,1,30,60,30,30,0,0,1,0,30Z" fill="#00b900"/>
  <path id="パス_18" data-name="パス 18" d="M28.1,11.2c-10.2,0-18.5,6.686-18.5,14.9,0,7.368,6.581,13.538,15.472,14.705.6.129,1.423.394,1.63.906a3.744,3.744,0,0,1,.06,1.661s-.217,1.3-.264,1.572c-.081.464-.372,1.816,1.6.99S38.754,39.71,42.635,35.275c2.68-2.919,3.965-5.881,3.965-9.17C46.6,17.886,38.3,11.2,28.1,11.2Z" transform="translate(2.4 2.8)" fill="#fff"/>
  <path id="パス_19" data-name="パス 19" d="M21.757,20a.364.364,0,0,0-.357.369v8.263a.363.363,0,0,0,.357.369h1.286a.363.363,0,0,0,.357-.369V20.369A.363.363,0,0,0,23.043,20Zm10.267,0H30.671a.372.372,0,0,0-.376.369v4.909l-3.853-5.114a.423.423,0,0,0-.029-.038l0,0-.023-.023-.007-.006-.02-.016-.01-.008-.02-.013-.011-.006-.02-.011-.012-.006-.021-.009-.012,0-.023-.007-.013,0-.022,0-.016,0-.02,0H24.776a.373.373,0,0,0-.376.369v8.263a.373.373,0,0,0,.376.369h1.353a.372.372,0,0,0,.376-.369V23.724l3.858,5.12a.369.369,0,0,0,.1.091l0,0,.023.014.011.005.018.009.019.008.011,0,.026.008h.006a.38.38,0,0,0,.1.013h1.353a.372.372,0,0,0,.376-.369V20.369A.372.372,0,0,0,32.024,20Zm-11.99,6.931H16.451V20.369A.368.368,0,0,0,16.085,20H14.766a.368.368,0,0,0-.366.369V28.63h0a.369.369,0,0,0,.1.255l0,.005.005.005a.362.362,0,0,0,.253.1h5.269a.367.367,0,0,0,.366-.37V27.3A.367.367,0,0,0,20.035,26.931Zm19-4.862A.367.367,0,0,0,39.4,21.7V20.37a.367.367,0,0,0-.366-.37H33.766a.362.362,0,0,0-.254.1l0,0-.006.007a.369.369,0,0,0-.1.255h0v8.261h0a.369.369,0,0,0,.1.255l.005.005.006.005a.362.362,0,0,0,.253.1h5.269a.367.367,0,0,0,.366-.369V27.3a.368.368,0,0,0-.366-.369H35.451v-1.4h3.583a.367.367,0,0,0,.366-.369v-1.33a.368.368,0,0,0-.366-.37H35.451v-1.4Z" transform="translate(3.6 5)" fill="#00b900"/>
</svg>
