<svg xmlns="http://www.w3.org/2000/svg" xmlns:xlink="http://www.w3.org/1999/xlink" width="60" height="60" viewBox="0 0 60 60">
  <defs>
    <linearGradient id="linear-gradient" x1="0.5" x2="0.5" y2="1" gradientUnits="objectBoundingBox">
      <stop offset="0" stop-color="#1d6ff2"/>
      <stop offset="1" stop-color="#1ac8fc"/>
    </linearGradient>
  </defs>
  <g id="グループ_92" data-name="グループ 92" transform="translate(-0.5)">
    <circle id="楕円形_7" data-name="楕円形 7" cx="30" cy="30" r="30" transform="translate(0.5)" fill="url(#linear-gradient)"/>
    <path id="パス_24" data-name="パス 24" d="M47.032,37.593a2.956,2.956,0,0,1-1.5.407H9.47a2.956,2.956,0,0,1-1.5-.407L20,25.561l2.97,2.97a6.148,6.148,0,0,0,4.53,1.72,6.148,6.148,0,0,0,4.53-1.72L35,25.561Zm1.061-1.061L36.061,24.5,48.093,12.468a2.956,2.956,0,0,1,.407,1.5V35.03A2.956,2.956,0,0,1,48.093,36.532Zm-41.185,0a2.956,2.956,0,0,1-.407-1.5V13.97a2.956,2.956,0,0,1,.407-1.5L18.939,24.5ZM47.032,11.407,30.97,27.47a4.665,4.665,0,0,1-3.47,1.28,4.665,4.665,0,0,1-3.47-1.28L7.968,11.407A2.956,2.956,0,0,1,9.47,11H45.53A2.956,2.956,0,0,1,47.032,11.407Z" transform="translate(3 5.5)" fill="#fff" fill-rule="evenodd"/>
  </g>
</svg>
