<svg xmlns="http://www.w3.org/2000/svg" width="60" height="60" viewBox="0 0 60 60">
  <g id="Layer_1" data-name="Layer 1" transform="translate(-26.379 -26.379)">
    <circle id="楕円形_6" data-name="楕円形 6" cx="30" cy="30" r="30" transform="translate(26.379 26.379)" fill="#fff"/>
    <path id="パス_21" data-name="パス 21" d="M118.89,88.89a30,30,0,1,1-30-30A30,30,0,0,1,118.89,88.89Zm0,0" transform="translate(-32.511 -32.511)" fill="#395976"/>
    <path id="パス_22" data-name="パス 22" d="M127.966,104.241V96.18h-5.2a2.792,2.792,0,0,0-.175,1.014,1.471,1.471,0,0,0-.119.477,7.781,7.781,0,0,1-4.715,6.207,4.366,4.366,0,0,1-2.265.362v6.5h3.82c.063,9.141.063,13.852.063,14.09v.543c.481,3.987,2.565,6.378,6.256,7.274a17.682,17.682,0,0,0,4.715.6,22.222,22.222,0,0,0,6.144-1.073v-7.646c-1.185.362-2.269.659-3.224.955a4.492,4.492,0,0,1-4.659-1.011,2.476,2.476,0,0,1-.356-.659,16.6,16.6,0,0,1-.29-2.924V110.734h8.288v-6.493Zm0,0" transform="translate(-70.474 -57.523)" fill="#fff"/>
  </g>
</svg>
